<?xml version="1.0" standalone="no"?>
<!DOCTYPE svg PUBLIC "-//W3C//DTD SVG 20010904//EN"
 "http://www.w3.org/TR/2001/REC-SVG-20010904/DTD/svg10.dtd">
<svg version="1.0" xmlns="http://www.w3.org/2000/svg"
 width="165.000000pt" height="165.000000pt" viewBox="0 0 165.000000 165.000000"
 preserveAspectRatio="xMidYMid meet">
<metadata>
Created by potrace 1.11, written by Peter Selinger 2001-2013
</metadata>
<g transform="translate(0.000000,165.000000) scale(0.100000,-0.100000)"
fill="#000000" stroke="none">
<path d="M950 1138 c-63 -105 -120 -201 -127 -213 -11 -20 -7 -29 33 -84 25
-33 49 -61 52 -61 6 0 194 301 320 512 l23 38 -93 0 -93 0 -115 -192z"/>
<path d="M1462 1318 c-11 -14 -220 -329 -382 -575 -51 -79 -96 -143 -100 -143
-4 0 -93 112 -196 250 l-189 250 -93 0 -92 0 78 -107 c43 -60 137 -189 209
-288 254 -352 275 -380 281 -382 5 -2 507 748 655 978 l19 29 -90 0 c-59 0
-93 -4 -100 -12z"/>
<path d="M0 1095 c0 -4 336 -475 357 -500 5 -5 51 -70 103 -142 51 -73 96
-133 99 -133 6 0 152 222 159 241 2 5 -18 38 -44 75 l-47 66 -31 -51 c-17 -28
-34 -50 -38 -49 -4 2 -90 114 -193 251 l-185 247 -90 0 c-50 0 -90 -2 -90 -5z"/>
</g>
</svg>
